<svg version="1.2" xmlns="http://www.w3.org/2000/svg" viewBox="0 0 1920 481" width="1920" height="481">
	<style>
		.s0 { fill: #2022d2 } 
		.s1 { fill: #ff0000 } 
		.s2 { fill: none;stroke: #d9d9d9;stroke-miterlimit:10;stroke-width: 6.5 } 
	</style>
	<g id="Layer 1">
		<path id="Forme 1" class="s0" d="m143.46 384.85l13.36-61.31 32.4-2.19-5.69 27.81 26.93-1.97 9.42-45.11-60.75 3.56 18.49-86.11-26.5-14.67 123.72-8.1-11.6 56.49-33.51 2.19 4.38-22.99-26.71 3.06-6.57 33.94 59.34-3.94-23.98 113.27z"/>
		<path id="Forme 1 copy" class="s1" d="m1555.13 293.78l13.41-61.54 32.53-2.2-5.72 27.92 27.04-1.98 9.45-45.28-60.99 3.58 21.17-103.46 94.99-5.84-11.65 56.7-33.63 2.2 4.39-23.08-26.81 3.08-6.6 34.07 59.57-3.96-24.07 113.7z"/>
		<path id="Forme 11" class="s0" d="m384.65 188.71l-4.89 26.35-32.7 2.04-32.48 155.33-26.05 1.97 31.96-154.96-32.69 2.33 5.32-27.13z"/>
		<path id="Forme 11 copy 3" class="s0" d="m604.6 175.16l-5.58 26.25-32.1 2.2-32.55 155.67-26.11 1.98 32.04-155.31-32.77 2.34 5.34-27.19z"/>
		<path id="Forme 11 copy 5" class="s1" d="m1791.4 98.08l-4.91 26.41-32.77 2.04-32.55 155.68-26.11 1.97 32.04-155.31-32.77 2.35 5.34-27.2z"/>
		<path id="Forme 12" class="s0" d="m495.23 181.71l-38.1 181.74-32.63 2.19 16.1-72.1-26.5 1.75-17.84 72.1-31.1 1.97 23.54-110.42 60.44-4.16 5.54-29.29-26.27 1.03-6.03 30.09-33.69 2.38 16.11-71.37z"/>
		<path id="Forme 11 copy" class="s0" d="m655.37 172.71l-38.39 181.11-28.91 1.97 38.39-181.32z"/>
		<path id="Forme 11 copy 2" class="s1" d="m1392.85 122.79l-21.76 107.51 9.35 70.96-25.4 1.46-13.29-73.74 22.19-104.44z"/>
		<path id="Forme 11 copy 9" class="s1" d="m1444.52 119.29l-21.75 107.5-24.96 73.58-30.66 1.75 26.28-76.64 22.19-104.44z"/>
		<path id="Forme 11 copy 7" class="s1" d="m1567.29 110.11l-6.79 32.62-59.78 4.37-7.3 36.21 59.56-4.09-7.37 35.33-59.78 4.08-9.05 45.55 60.73-3.21-7.01 31.31-94.88 6.64 37.66-183.06z"/>
		<path id="Forme 12 copy 2" class="s0" d="m773.61 165.13l-37.66 181.3-93.14 6.07 5.87-27.33 59.53-4.73 24.52-114.73-26.86 2.04-23.96 114.74-33.22 2.64 31.79-153.87z"/>
		<path id="Forme 12 copy 3" class="s0" d="m892.11 156.25l-39.53 181.8-29.78 2.19-14.23-75.47-16.86 77.44-32.63 1.83 38.32-181.6 31.97-1.97 15.55 73.21 17.3-75.4z"/>
		<path id="Forme 3" class="s1" d="m977.68 331.25l41.46-183.94 33.58-1.75-14.78 64.77 28.79-2.58 14.31-64.23 29.19-2.04-36.93 183.85-31.53 1.75 17.08-84.3-28.14 2.15-19.16 83.9z"/>
		<path id="Forme 12" class="s1" d="m1223.07 133.51l-36.35 181.31-31.09 2.19 16.32-74.27-26.5 1.75-17.85 74.27-31.09 2.19 23.54-112.81 60.43-4.16 5.55-29.28-26.27 1.02-6.03 30.08-33.69 2.39 13.69-68.98z"/>
		<path id="Forme 12 copy 4" class="s1" d="m1337.37 126l-21.02 103.42-27.59 2.19 10.95 76.2-31.09 2.19-10.18-72.52-17.85 74.27-31.09 2.19 23.54-112.81 60.43-4.15 5.55-29.29-26.28 1.02-6.02 30.09-33.7 2.38 14.43-69.92z"/>
		<path id="Forme 13" class="s2" d="m108 186.01l1734-113.34z"/>
		<path id="Forme 13 copy" class="s2" d="m117 406.34l1734-113.34z"/>
	</g>
</svg>